# xmcd CD database file
#
# Track frame offsets:
#	150
#	19560
#	41392
#	66520
#	87567
#	110495
#	128787
#	151267
#	171652
#	191322
#	215270
#	237432
#	259175
#	280590
#
# Disc length: 3973 seconds
#
# Revision: 0
# Processed by: cddbd v1.5.2PL0 Copyright (c) Steve Scherf et al.
# Submitted via: CDex 1.70beta2
#
DISCID=c20f830e
DTITLE=Andrea Mingardi - Sucessi
DYEAR=1997
DGENRE=Blues
TTITLE0=Amare Amare
TTITLE1=Datemi della musica
TTITLE2=Io vorrei, non vorrei ma se vuoi
TTITLE3=Questa città
TTITLE4=Mi manca il cielo
TTITLE5=Tutti abbiamo una canzone
TTITLE6=Caruso
TTITLE7=Sogno
TTITLE8=Canterò
TTITLE9=Va bene...cominciamo
TTITLE10=Quando sarò grande
TTITLE11=Siamo angeli
TTITLE12=La mafia siamo noi
TTITLE13=Con un amico vicino
EXTD=YEAR: 1997
EXTT0=
EXTT1=
EXTT2=
EXTT3=
EXTT4=
EXTT5=
EXTT6=
EXTT7=
EXTT8=
EXTT9=
EXTT10=
EXTT11=
EXTT12=
EXTT13=
PLAYORDER=
